<svg width="32" height="32" viewBox="0 0 32 32" fill="none" xmlns="http://www.w3.org/2000/svg">
<path fill-rule="evenodd" clip-rule="evenodd" d="M4.40774 3.2002C5.07465 3.2002 5.61529 3.74083 5.61529 4.40774V25.0165C5.61529 25.3795 5.75948 25.7276 6.01613 25.9843C6.27278 26.2409 6.62088 26.3851 6.98384 26.3851H27.5926C28.2596 26.3851 28.8002 26.9257 28.8002 27.5926C28.8002 28.2596 28.2596 28.8002 27.5926 28.8002H6.98384C5.98036 28.8002 5.01797 28.4016 4.3084 27.692C3.59883 26.9824 3.2002 26.02 3.2002 25.0165V4.40774C3.2002 3.74083 3.74083 3.2002 4.40774 3.2002Z" fill="#D4D8F4"/>
<path fill-rule="evenodd" clip-rule="evenodd" d="M28.4467 9.99431C28.9182 10.4659 28.9182 11.2305 28.4467 11.702L20.7184 19.4303C20.2468 19.9019 19.4822 19.9019 19.0106 19.4303L14.7123 15.132L10.414 19.4303C9.94237 19.9019 9.1778 19.9019 8.70622 19.4303C8.23464 18.9588 8.23464 18.1942 8.70622 17.7226L13.8584 12.5704C14.33 12.0988 15.0946 12.0988 15.5662 12.5704L19.8645 16.8687L26.7389 9.99431C27.2105 9.52273 27.9751 9.52273 28.4467 9.99431Z" fill="#D4D8F4"/>
<path fill-rule="evenodd" clip-rule="evenodd" d="M22.5205 10.8482C22.5205 10.1813 23.0611 9.64062 23.7281 9.64062H27.5922C28.2591 9.64062 28.7998 10.1813 28.7998 10.8482V14.7123C28.7998 15.3792 28.2591 15.9199 27.5922 15.9199C26.9253 15.9199 26.3847 15.3792 26.3847 14.7123V12.0557H23.7281C23.0611 12.0557 22.5205 11.5151 22.5205 10.8482Z" fill="#D4D8F4"/>
</svg>
