<svg width="32" height="32" viewBox="0 0 32 32" fill="none" xmlns="http://www.w3.org/2000/svg">
<path fill-rule="evenodd" clip-rule="evenodd" d="M11.1398 8.78224C12.5112 7.60788 13.4547 6.80154 14.2507 6.2752L11.1398 8.78224ZM11.1398 8.78224L9.69502 10.0204C9.69495 10.0204 9.69509 10.0203 9.69502 10.0204C8.12223 11.3689 7.63549 11.8193 7.37395 12.3866C7.1138 12.954 7.08817 13.6183 7.08817 15.6895V21.8162C7.08817 23.2129 7.09073 24.1388 7.18326 24.8266C7.2711 25.4796 7.4197 25.7353 7.58223 25.8979C7.74476 26.0604 8.00048 26.209 8.65346 26.2968C9.34129 26.3894 10.2672 26.3919 11.6639 26.3919H20.3337C21.7304 26.3919 22.6563 26.3894 23.3441 26.2968C23.9971 26.209 24.2528 26.0604 24.4154 25.8979C24.5779 25.7353 24.7265 25.4796 24.8143 24.8266C24.9069 24.1388 24.9094 23.2129 24.9094 21.8162V15.6881C24.9094 13.6155 24.8836 12.9527 24.6225 12.3858L24.6218 12.3843C24.3619 11.818 23.8759 11.3693 22.3028 10.0191L20.8579 8.7809C20.8579 8.78086 20.858 8.78094 20.8579 8.7809C19.4875 7.60671 18.5437 6.80058 17.7478 6.27473C16.9801 5.76753 16.4751 5.60847 15.9988 5.60847C15.5229 5.60847 15.0185 5.76754 14.2507 6.2752M12.9225 4.26635C13.9013 3.61912 14.8708 3.2002 15.9988 3.2002C17.1264 3.2002 18.096 3.61841 19.0753 4.26537C20.0095 4.88257 21.064 5.78607 22.3549 6.89214L22.4248 6.95205L23.8699 8.1905C23.9376 8.2486 24.0051 8.30638 24.0709 8.3628C25.3692 9.4754 26.3039 10.2765 26.8102 11.379C27.3197 12.4855 27.3189 13.7206 27.3178 15.4431C27.3178 15.5237 27.3177 15.6053 27.3177 15.6881L27.3177 21.8983C27.3178 23.1908 27.3178 24.2803 27.2011 25.1477C27.0773 26.0683 26.8025 26.9165 26.1183 27.6008C25.434 28.285 24.5858 28.5598 23.6652 28.6836C22.7978 28.8003 21.7083 28.8002 20.4158 28.8002H11.5818C10.2893 28.8002 9.19979 28.8003 8.33237 28.6836C7.41177 28.5598 6.56354 28.285 5.87932 27.6008C5.1951 26.9165 4.92033 26.0683 4.79648 25.1477C4.67979 24.2803 4.67983 23.1908 4.67988 21.8983L4.67989 15.6895C4.67989 15.6069 4.67984 15.5253 4.67979 15.4449C4.67871 13.7217 4.67793 12.4873 5.18557 11.3812L5.18626 11.3797C5.69517 10.2749 6.63098 9.4736 7.93734 8.35499C7.99986 8.30145 8.06323 8.24719 8.12744 8.19213L9.57263 6.95361C9.60157 6.92883 9.63075 6.90383 9.65945 6.87926C10.9432 5.77988 11.9927 4.88111 12.9225 4.26635Z" fill="#D4D8F4"/>
<path fill-rule="evenodd" clip-rule="evenodd" d="M11.9585 18.4976C12.4553 18.0008 13.1291 17.7217 13.8317 17.7217H18.1666C18.8692 17.7217 19.543 18.0008 20.0398 18.4976C20.5366 18.9944 20.8157 19.6682 20.8157 20.3708V27.5956C20.8157 28.2607 20.2766 28.7998 19.6116 28.7998C18.9466 28.7998 18.4075 28.2607 18.4075 27.5956V20.3708C18.4075 20.3069 18.3821 20.2457 18.3369 20.2005C18.2918 20.1553 18.2305 20.13 18.1666 20.13H13.8317C13.7679 20.13 13.7066 20.1553 13.6614 20.2005C13.6163 20.2457 13.5909 20.3069 13.5909 20.3708V27.5956C13.5909 28.2607 13.0518 28.7998 12.3868 28.7998C11.7217 28.7998 11.1826 28.2607 11.1826 27.5956V20.3708C11.1826 19.6682 11.4617 18.9944 11.9585 18.4976Z" fill="#D4D8F4"/>
</svg>
