<svg width="32" height="32" viewBox="0 0 32 32" fill="none" xmlns="http://www.w3.org/2000/svg">
<path fill-rule="evenodd" clip-rule="evenodd" d="M6.04464 10.3067C6.04464 9.52123 6.68139 8.88448 7.46686 8.88448H24.5335C25.319 8.88448 25.9557 9.52123 25.9557 10.3067V10.8499L16.6359 15.5099C16.4385 15.6085 16.2208 15.6599 16.0001 15.6599C15.7795 15.6599 15.5618 15.6085 15.3644 15.5099L6.04464 10.85V10.3067ZM6.04464 14.0302V21.6845C6.04464 22.47 6.68139 23.1067 7.46686 23.1067H24.5335C25.319 23.1067 25.9557 22.47 25.9557 21.6845V14.0301L17.9076 18.0542C17.3154 18.3501 16.6622 18.5043 16.0001 18.5043C15.3381 18.5043 14.6849 18.3501 14.0926 18.0542L6.04464 14.0302ZM7.46686 6.04004C5.11045 6.04004 3.2002 7.95029 3.2002 10.3067V21.6845C3.2002 24.0409 5.11045 25.9512 7.46686 25.9512H24.5335C26.8899 25.9512 28.8002 24.0409 28.8002 21.6845V10.3067C28.8002 7.95029 26.8899 6.04004 24.5335 6.04004H7.46686Z" fill="#4C5BD0" fill-opacity="0.24"/>
</svg>
