<svg width="32" height="32" viewBox="0 0 32 32" fill="none" xmlns="http://www.w3.org/2000/svg">
<path d="M16.0005 5.7602C14.8123 5.7602 13.6728 6.23219 12.8326 7.07236C11.9925 7.91252 11.5205 9.05203 11.5205 10.2402C11.5205 11.4284 11.9925 12.5679 12.8326 13.408C13.6728 14.2482 14.8123 14.7202 16.0005 14.7202C17.1886 14.7202 18.3281 14.2482 19.1683 13.408C20.0085 12.5679 20.4805 11.4284 20.4805 10.2402C20.4805 9.05203 20.0085 7.91252 19.1683 7.07236C18.3281 6.23219 17.1886 5.7602 16.0005 5.7602ZM8.96047 10.2402C8.96047 8.37307 9.70218 6.58242 11.0224 5.26216C12.3427 3.94191 14.1333 3.2002 16.0005 3.2002C17.8676 3.2002 19.6582 3.94191 20.9785 5.26216C22.2988 6.58242 23.0405 8.37307 23.0405 10.2402C23.0405 12.1073 22.2988 13.898 20.9785 15.2182C19.6582 16.5385 17.8676 17.2802 16.0005 17.2802C14.1333 17.2802 12.3427 16.5385 11.0224 15.2182C9.70218 13.898 8.96047 12.1073 8.96047 10.2402ZM4.48047 24.9602C4.48047 23.2628 5.15475 21.6349 6.35499 20.4347C7.55522 19.2345 9.18308 18.5602 10.8805 18.5602H21.1205C22.8179 18.5602 24.4457 19.2345 25.646 20.4347C26.8462 21.6349 27.5205 23.2628 27.5205 24.9602V27.8002C27.5205 28.3525 27.0728 28.8002 26.5205 28.8002H5.48047C4.92818 28.8002 4.48047 28.3525 4.48047 27.8002V24.9602ZM10.8805 21.1202C9.86204 21.1202 8.88532 21.5248 8.16518 22.2449C7.44504 22.965 7.04047 23.9418 7.04047 24.9602V26.2402H24.9605V24.9602C24.9605 23.9418 24.5559 22.965 23.8358 22.2449C23.1156 21.5248 22.1389 21.1202 21.1205 21.1202H10.8805Z" fill="#7188D9"/>
</svg>
